<svg xmlns="http://www.w3.org/2000/svg" viewBox="0 0 5000 5000" width="256" height="256"><path fill="#8dfd87" d="m1378.792 3291.496 368.899 368.899s101.246-221.243 204.571-231.062c103.325-9.819 181.8 8.373 181.8 8.373l-587.709-610.281s67.001 194.606 11.826 272.25-213.164 158.045-213.164 158.045l33.777 33.776z" class="colorf8e451 svgShape"></path><path fill="#41a83c" d="m2829.371 3459.056 610.287-587.75s-47.631 236.633 64.705 306.013c112.335 69.38 124.212 114.177 124.212 114.177l-368.898 368.899-80.344-158.046s-209.243-116.957-349.962-43.293z" class="color3c57a8 svgShape"></path><path fill="#8dfd87" d="M1747.691 3784.013s42.153 119.562 120.656 157.543 162.584 50.599 162.584 50.599l145.548-39.517-193.085 417.719-90.494 94.916h-109.825l-84.846-52.583-52.561-97.705 102.023-530.972zM707.943 3358.267c17.313 1.542 537.776-86.96 537.776-86.96l-148.538-94.1-83.999-99.736 5.169-157.437 35.248-92.61-464.173 225.683-51.038 146.285 22.794 66.458c-.001 0 48.496 83.664 146.761 92.417z" class="colorf8e451 svgShape"></path><path fill="#41a83c" d="m2808.467 3966.95 215.506 403.408s44.354 86.341 115.047 89.468 128.941-16.568 128.941-16.568l93.738-87.81-2.712-100.714-91.025-517.794-57.634 134.384-71.307 70.233-108.279 50.6-108.709-5.175-113.566-20.032zm898.838-701.1s200.306-56.66 236.329-128.9c36.023-72.24 50.551-108.207 50.551-108.207l-40.397-201.319 420.158 192.305s120.027 97.318 94.202 175.07c-25.825 77.752-78.165 163.468-78.165 163.468l-150.287.02-532.391-92.437z" class="color3c57a8 svgShape"></path><path fill="#92dc8e" d="m1116.396 3310.783 228.619-53.064 402.676 402.675-37.717 243.968zM3259.677 3660.394l402.675-402.675 239.734 41.95-604.693 604.693z" class="color8ea3dc svgShape"></path><circle cx="1300.062" cy="2974.408" r="286.895" fill="#ffffff" class="colorfff svgShape"></circle><circle cx="2027.236" cy="3705.262" r="286.895" fill="#ffffff" class="colorfff svgShape"></circle><circle cx="2972.77" cy="3705.262" r="286.895" fill="#ffffff" class="colorfff svgShape"></circle><circle cx="3707.305" cy="2974.408" r="286.895" fill="#ffffff" class="colorfff svgShape"></circle><path fill="#41a83c" d="M2135.467 2130.281h739.242v233.097h-739.242zM2066.099 2871.306l69.368-233.097h739.242l69.368 233.097h-877.978z" class="color3c57a8 svgShape"></path><path fill="#ffffff" d="M2316.188 2385.655h377.799v239.639h-377.799zM2316.188 1868.54l188.9 98.992 188.899-98.992v261.731h-377.799z" class="colorfff svgShape"></path><path fill="#8dfd87" d="M2505.088 534.682v1432.85s-274.599-114.59-438.989-267.554-294.122-230.646-317.004-505.543 0-659.753 0-659.753h755.993z" class="colorf8e451 svgShape"></path><path fill="#ffffff" d="M3261.081 534.682v696.406s-50.277 133.229-73.259 210.935c-22.982 77.707-272.195 279.973-272.195 279.973l-410.539 245.536V534.682h755.993z" class="colorfff svgShape"></path><path fill="#333333" d="M1350.751 2954.712c8.874 0 17.747-3.387 24.521-10.161l48.726-48.726c13.547-13.536 13.547-35.506 0-49.042-13.548-13.547-35.495-13.547-49.042 0l-48.726 48.726c-13.547 13.536-13.547 35.506 0 49.042 6.773 6.774 15.647 10.161 24.521 10.161zm-157.445 157.445c8.874 0 17.747-3.387 24.521-10.161l48.726-48.737c13.548-13.548 13.548-35.506 0-49.042-13.547-13.548-35.495-13.548-49.042 0l-48.726 48.737c-13.547 13.548-13.547 35.506 0 49.042 6.773 6.774 15.647 10.161 24.521 10.161zm181.649-10.161c6.774 6.774 15.647 10.161 24.521 10.161s17.747-3.387 24.521-10.161c13.547-13.536 13.547-35.495 0-49.042l-48.726-48.737c-13.547-13.548-35.495-13.548-49.042 0-13.547 13.536-13.547 35.494 0 49.042l48.726 48.737zm-157.444-157.445c6.774 6.774 15.647 10.161 24.521 10.161s17.747-3.387 24.521-10.161c13.548-13.536 13.548-35.506 0-49.042l-48.726-48.726c-13.548-13.547-35.495-13.547-49.042 0-13.547 13.536-13.547 35.506 0 49.042l48.726 48.726zm888.357 633.144-48.726 48.726c-13.547 13.536-13.547 35.506 0 49.042 6.774 6.774 15.647 10.161 24.521 10.161s17.747-3.387 24.521-10.161l48.726-48.726c13.548-13.536 13.548-35.506 0-49.042-13.548-13.547-35.495-13.547-49.042 0zm-157.445 157.434-48.726 48.726c-13.548 13.536-13.548 35.506 0 49.042 6.774 6.774 15.647 10.161 24.521 10.161s17.747-3.387 24.521-10.161l48.726-48.726c13.548-13.536 13.548-35.506 0-49.042-13.548-13.548-35.495-13.548-49.042 0zm157.761 0c-13.547-13.548-35.494-13.548-49.042 0-13.547 13.536-13.547 35.506 0 49.042l48.726 48.726c6.774 6.774 15.647 10.161 24.521 10.161s17.747-3.387 24.521-10.161c13.548-13.536 13.548-35.506 0-49.042l-48.726-48.726zm-157.445-157.434c-13.548-13.547-35.495-13.547-49.042 0-13.548 13.536-13.548 35.506 0 49.042l48.726 48.726c6.774 6.774 15.647 10.161 24.521 10.161s17.747-3.387 24.521-10.161c13.548-13.536 13.548-35.506 0-49.042l-48.726-48.726z" class="color333 svgShape"></path><path fill="#333333" d="M714.761 3392.941c11.899 0 23.866-.994 35.788-3.014l335.324-56.929 583.131 583.132-58.458 332.598c-12.08 68.686 10.161 139.145 59.474 188.48 40.733 40.744 94.336 62.793 150.671 62.793 10.657 0 21.405-.791 32.175-2.382 67.76-10.059 125.157-50.487 157.445-110.92l240.762-450.721c1.185-1.145 2.472-2.114 3.635-3.28 76.092-76.092 108.922-184.766 87.856-290.719-12.374-62.206-42.788-118.97-87.969-164.162-.102-.103-.215-.192-.316-.295l-730.404-730.401c-.057-.052-.09-.107-.147-.159-45.068-45.057-101.877-75.437-164.219-87.844-103.582-20.763-209.772 10.605-285.684 83.574l-460.447 246.466c-60.512 32.379-100.974 89.888-111.022 157.784-10.048 67.873 12.035 134.64 60.557 183.151 40.51 40.528 95.423 62.848 151.848 62.848zm454.972-74.179 138.23-23.468c6.932-.244 13.875-.435 20.784-1.125l378.721 378.724a324.743 324.743 0 0 0-1.614 33.623l-22.184 126.191-513.937-513.945zm557.921 270.096c-.576 1.317-1.016 2.704-1.434 4.112-.057.144-.102.291-.158.435l-317.803-317.814c42.167-15.567 81.782-39.94 115.583-73.75 70.052-70.034 102.871-167.665 91.299-265.376l450.06 450.061c-97.531-11.7-195.186 21.123-265.374 91.302-32.603 32.597-56.525 70.565-72.173 111.03zm221.469 765.156c-21.834 40.857-60.625 68.189-106.438 74.985-45.836 6.785-90.859-8.072-123.621-40.834-33.327-33.35-48.365-80.98-40.191-127.426l69.589-395.884c13.841 24.189 30.73 47.097 51.368 67.729 62.725 62.737 145.139 94.11 227.531 94.11 36.07 0 72.028-6.377 106.45-18.401l-184.688 345.721zm256.545-470.359c-98.355 98.321-258.397 98.276-356.797-.113-47.574-47.579-71.915-109.595-73.45-172.072l17.443-99.212c12.283-31.107 30.888-60.272 56.008-85.389 47.8-47.8 111.857-73.845 178.037-73.845 16.551 0 33.259 1.637 49.855 4.968 48.862 9.718 93.32 33.486 128.634 68.73l.203.205c0 .006.011.007.022.013 35.382 35.438 59.225 79.892 68.912 128.576 16.55 83.18-9.213 168.462-68.867 228.139zm-909.627-1161.487a253.44 253.44 0 0 1 49.877 4.968c48.907 9.732 93.433 33.553 128.769 68.878 35.427 35.438 59.293 79.919 69.002 128.656 16.551 83.17-9.212 168.452-68.889 228.129-28.551 28.551-62.386 48.544-98.321 60.507l-76.905 13.055c-65.638.787-131.535-23.684-181.548-73.675-98.31-98.333-98.31-258.34 0-356.673 47.801-47.8 111.858-73.845 178.015-73.845zm-725.064 434.921c6.796-45.938 34.185-84.864 75.144-106.789l348.736-186.671c-41.625 113.95-17.138 246.821 74.128 338.099 20.976 20.975 44.278 38.118 68.912 52.079l-398.952 67.726c-46.22 7.892-93.772-7.271-126.986-40.496-32.853-32.829-47.778-78.01-40.982-123.948zm3069.555-497.985c-62.409 12.43-119.196 42.81-164.264 87.867l-730.912 730.912c0 .006 0 .013-.011.019-45.114 45.144-75.528 101.875-87.89 164.076-21.089 105.953 11.741 214.627 87.856 290.719 1.152 1.149 2.416 2.104 3.579 3.232l240.819 450.769c32.266 60.422 89.662 100.85 157.422 110.909a218.496 218.496 0 0 0 32.175 2.394c56.335 0 109.938-22.049 150.671-62.782 49.313-49.302 71.553-119.76 59.496-188.491l-58.48-332.607 583.131-583.123 335.324 56.929a213.872 213.872 0 0 0 35.788 3.014c56.426 0 111.338-22.32 151.868-62.849 48.522-48.523 70.583-115.278 60.535-183.163-10.048-67.885-50.51-125.394-111-157.772l-460.458-246.47c-75.955-72.966-182.179-104.312-285.649-83.583zm13.593 68.021c82.934-16.63 168.057 9.122 227.87 68.889 98.31 98.333 98.31 258.34 0 356.673-50.013 49.999-115.967 74.469-181.65 73.662l-76.803-13.04c-35.958-11.96-69.792-31.953-98.344-60.51-59.677-59.699-85.44-144.981-68.889-228.129 9.709-48.703 33.575-93.196 69.002-128.645 35.336-35.325 79.862-59.146 128.814-68.9zm-380.358 865.821c-.406-1.392-.847-2.762-1.411-4.064-15.647-40.473-39.581-78.451-72.186-111.054-70.176-70.196-167.876-102.992-265.374-91.303l450.06-450.058c-11.572 97.692 21.247 195.322 91.299 265.375 33.801 33.81 73.417 58.182 115.583 73.75l-317.802 317.814-.169-.46zm-548.303 62.58c9.709-48.749 33.575-93.229 69.002-128.656 35.314-35.325 79.84-59.135 128.814-68.889a253.228 253.228 0 0 1 49.832-4.956c66.157 0 130.214 26.045 178.015 73.845 25.119 25.116 43.725 54.283 56.008 85.39l17.442 99.192c-1.535 62.482-25.876 124.507-73.45 172.09-98.423 98.412-258.442 98.434-356.774.113-59.676-59.677-85.439-144.959-68.889-228.129zm555.472 732.639c-32.74 32.729-77.763 47.665-123.621 40.834-45.813-6.808-84.604-34.128-106.416-74.985l-184.687-345.709c34.399 12.021 70.357 18.395 106.427 18.389 82.392 0 164.806-31.374 227.531-94.11 20.637-20.636 37.538-43.548 51.379-67.742l69.601 395.886c8.15 46.468-6.888 94.099-40.214 127.437zm35.393-555.464-22.184-126.201a324.694 324.694 0 0 0-1.614-33.606l378.721-378.724c6.909.69 13.852.881 20.784 1.125l138.23 23.468-513.937 513.938zm1112.692-675.612c6.819 45.937-8.128 91.118-40.959 123.949-33.214 33.203-80.675 48.444-127.008 40.496l-398.941-67.725c24.634-13.962 47.947-31.107 68.923-52.08 91.265-91.278 115.752-224.148 74.128-338.099l348.736 186.671c40.959 21.924 68.325 60.84 75.121 106.788z" class="color333 svgShape"></path><path fill="#333333" d="M3624.727 2944.551c6.774 6.774 15.647 10.161 24.521 10.161s17.747-3.387 24.521-10.161c13.547-13.536 13.547-35.506 0-49.042l-48.726-48.726c-13.547-13.547-35.495-13.547-49.042 0-13.548 13.536-13.548 35.506 0 49.042l48.726 48.726zm157.445 157.445c6.774 6.774 15.647 10.161 24.521 10.161s17.747-3.387 24.521-10.161c13.548-13.536 13.548-35.495 0-49.042l-48.726-48.737c-13.547-13.548-35.494-13.548-49.042 0-13.548 13.536-13.548 35.494 0 49.042l48.726 48.737zm-181.65 10.161c8.874 0 17.747-3.387 24.521-10.161l48.726-48.737c13.547-13.548 13.547-35.506 0-49.042-13.548-13.548-35.495-13.548-49.042 0l-48.726 48.737c-13.548 13.548-13.548 35.506 0 49.042 6.774 6.774 15.647 10.161 24.521 10.161zm157.445-157.445c8.874 0 17.747-3.387 24.521-10.161l48.726-48.726c13.548-13.536 13.548-35.506 0-49.042-13.547-13.547-35.495-13.547-49.042 0l-48.726 48.726c-13.548 13.536-13.548 35.506 0 49.042 6.773 6.774 15.647 10.161 24.521 10.161zm-864.13 720.751c6.774 6.774 15.647 10.161 24.521 10.161s17.747-3.387 24.521-10.161c13.548-13.536 13.548-35.506 0-49.042l-48.726-48.726c-13.548-13.547-35.495-13.547-49.042 0-13.547 13.536-13.547 35.506 0 49.042l48.726 48.726zm157.423 157.434c6.774 6.774 15.647 10.161 24.521 10.161s17.747-3.387 24.521-10.161c13.548-13.536 13.548-35.506 0-49.042l-48.726-48.726c-13.547-13.548-35.494-13.548-49.042 0-13.548 13.536-13.548 35.506 0 49.042l48.726 48.726zm-181.628 10.161c8.874 0 17.747-3.387 24.521-10.161l48.726-48.726c13.548-13.536 13.548-35.506 0-49.042-13.548-13.548-35.494-13.548-49.042 0l-48.726 48.726c-13.547 13.536-13.547 35.506 0 49.042 6.774 6.774 15.648 10.161 24.521 10.161zm157.423-157.434c8.874 0 17.747-3.387 24.521-10.161l48.726-48.726c13.548-13.536 13.548-35.506 0-49.042-13.547-13.547-35.494-13.547-49.042 0l-48.726 48.726c-13.548 13.536-13.548 35.506 0 49.042 6.774 6.774 15.647 10.161 24.521 10.161zm-896.666-1082.098c-15.354 0-28.856 10.082-33.237 24.792l-69.364 233.097c-3.138 10.488-1.106 21.845 5.442 30.629a34.68 34.68 0 0 0 27.795 13.943h877.971a34.68 34.68 0 0 0 27.795-13.943c6.548-8.783 8.58-20.141 5.442-30.629l-69.363-233.097c-4.38-14.71-17.883-24.792-33.237-24.792H2723.59v-205.471h146.042c19.147 0 34.682-15.523 34.682-34.682v-233.096c0-19.159-15.535-34.682-34.682-34.682H2723.59v-206.783c87.246-51.507 189.552-119.183 283.313-199.362 392.991-69.423 677.14-407.582 677.14-808.414V750.167c0-19.159-15.534-34.682-34.682-34.682h-358.694V534.682c0-19.159-15.534-34.682-34.682-34.682H1744.013c-19.147 0-34.682 15.523-34.682 34.682v180.803H1350.66c-19.147 0-34.682 15.523-34.682 34.682v130.869c0 219.244 85.395 425.517 240.446 580.817 119.783 119.798 270.567 198.032 436.4 227.36 93.839 80.285 196.27 148.043 283.606 199.602v206.78h-146.042c-19.147 0-34.682 15.523-34.682 34.682v233.096c0 19.158 15.535 34.682 34.682 34.682h146.042v205.471h-146.041zm762.094 233.096h-784.944l48.703-163.733h687.538l48.703 163.733zm722.196-2051.774v96.188c0 326.525-205.934 607.62-504.736 710.414 104.542-111.856 180.724-240.912 180.724-379.911V784.848h324.012zM1778.695 569.363h1442.609v642.176c0 154.923-114.838 300.415-253.7 419.837-.339.302-.7.577-1.027.892-183.456 157.462-408.447 269.367-466.566 296.997-58.13-27.634-283.2-139.576-466.679-297.085-.248-.234-.508-.439-.768-.666-138.941-119.447-253.87-264.993-253.87-419.975V569.363zm-393.353 311.673v-96.188h323.989v426.691c0 138.783 75.945 267.657 180.227 379.393-106.224-36.848-202.953-96.982-284.069-178.111-141.955-142.181-220.147-331.045-220.147-531.785zm960.452 1047.309c77.018 42.251 131.93 67.216 140.036 70.848a34.692 34.692 0 0 0 14.18 3.026c4.832 0 9.664-1.005 14.18-3.026 8.106-3.632 63.019-28.598 140.036-70.849v167.251h-308.432v-167.25zm-180.724 236.613h669.88v163.733h-145.59c-.158-.001-.293-.045-.452-.045-.158 0-.293.044-.451.045h-376.893c-.158-.001-.293-.045-.451-.045-.158 0-.294.044-.452.045H2165.07v-163.733zm180.724 233.097h308.432v205.471h-308.432v-205.471z" class="color333 svgShape"></path></svg>