<?xml version="1.0" encoding="iso-8859-1"?>
<!-- Uploaded to: SVG Repo, www.svgrepo.com, Generator: SVG Repo Mixer Tools -->
<svg height="800px" width="800px" version="1.1" id="Layer_1" xmlns="http://www.w3.org/2000/svg" xmlns:xlink="http://www.w3.org/1999/xlink" 
	 viewBox="0 0 512 512" xml:space="preserve">
<path style="fill:#43D177;" d="M469.13,182.75c19.934,24.64,31.875,56.02,31.875,90.193c0,34.954-12.49,66.982-33.26,91.875
	c-5.849,7.004-14.558,10.984-23.684,10.984H66.796c-9.258,0-18.098-4.079-23.925-11.27c-19.934-24.651-31.875-56.031-31.875-90.193
	c0-34.954,12.49-66.993,33.26-91.886c5.849-7.004,14.558-10.973,23.684-10.973h79.407h217.308h80.55
	C454.462,171.48,463.302,175.548,469.13,182.75z M458.355,242.431c0-6.069-4.926-10.995-10.995-10.995s-10.995,4.926-10.995,10.995
	c0,6.08,4.926,10.995,10.995,10.995S458.355,248.512,458.355,242.431z M444.38,318.815c0-10.731-8.697-19.428-19.417-19.428
	c-10.731,0-19.428,8.697-19.428,19.428c0,10.731,8.697,19.428,19.428,19.428C435.683,338.243,444.38,329.546,444.38,318.815z
	 M435.958,220.034c0-6.069-4.926-10.995-10.995-10.995c-6.08,0-10.995,4.926-10.995,10.995s4.915,10.995,10.995,10.995
	C431.032,231.029,435.958,226.104,435.958,220.034z M435.958,264.84c0-6.069-4.926-10.995-10.995-10.995
	c-6.08,0-10.995,4.926-10.995,10.995s4.915,10.995,10.995,10.995C431.032,275.835,435.958,270.909,435.958,264.84z M413.549,242.431
	c0-6.069-4.926-10.995-10.995-10.995s-10.995,4.926-10.995,10.995c0,6.08,4.926,10.995,10.995,10.995
	S413.549,248.512,413.549,242.431z M357.342,315.923v-84.575c0-9.28-7.532-16.812-16.823-16.812H171.48
	c-9.291,0-16.823,7.532-16.823,16.812v84.575c0,9.291,7.532,16.823,16.823,16.823H340.52
	C349.811,332.746,357.342,325.214,357.342,315.923z M120.441,242.431c0-6.069-4.926-10.995-10.995-10.995
	c-6.069,0-10.995,4.926-10.995,10.995c0,6.08,4.926,10.995,10.995,10.995C115.515,253.427,120.441,248.512,120.441,242.431z
	 M106.466,318.815c0-10.731-8.697-19.428-19.428-19.428c-10.72,0-19.417,8.697-19.417,19.428c0,10.731,8.697,19.428,19.417,19.428
	C97.769,338.243,106.466,329.546,106.466,318.815z M98.033,220.034c0-6.069-4.915-10.995-10.995-10.995
	c-6.069,0-10.995,4.926-10.995,10.995s4.926,10.995,10.995,10.995C93.118,231.029,98.033,226.104,98.033,220.034z M98.033,264.84
	c0-6.069-4.915-10.995-10.995-10.995c-6.069,0-10.995,4.926-10.995,10.995s4.926,10.995,10.995,10.995
	C93.118,275.835,98.033,270.909,98.033,264.84z M75.636,242.431c0-6.069-4.926-10.995-10.995-10.995s-10.995,4.926-10.995,10.995
	c0,6.08,4.926,10.995,10.995,10.995C70.71,253.427,75.636,248.512,75.636,242.431z"/>
<g>
	<path style="fill:#49A155;" d="M446.062,171.48h-0.858h-80.55v-18.142c0-9.467,7.675-17.141,17.141-17.141h28.994
		c9.742,0,18.56,3.947,24.937,10.335C442.115,152.92,446.062,161.738,446.062,171.48z"/>
	<path style="fill:#49A155;" d="M424.962,299.386c10.72,0,19.417,8.697,19.417,19.428c0,10.731-8.697,19.428-19.417,19.428
		c-10.731,0-19.428-8.697-19.428-19.428C405.534,308.083,414.231,299.386,424.962,299.386z"/>
</g>
<path style="fill:#94D8F2;" d="M357.342,231.348v84.575c0,9.291-7.532,16.823-16.823,16.823H171.48
	c-9.291,0-16.823-7.532-16.823-16.823v-84.575c0-9.28,7.532-16.812,16.823-16.812H340.52
	C349.811,214.537,357.342,222.068,357.342,231.348z"/>
<g>
	<path style="fill:#49A155;" d="M147.346,153.338v18.142H67.939h-2.001c0-19.483,15.789-35.283,35.272-35.283h28.994
		C139.671,136.196,147.346,143.871,147.346,153.338z"/>
	<path style="fill:#49A155;" d="M87.038,299.386c10.731,0,19.428,8.697,19.428,19.428c0,10.731-8.697,19.428-19.428,19.428
		c-10.72,0-19.417-8.697-19.417-19.428C67.62,308.083,76.317,299.386,87.038,299.386z"/>
</g>
<path d="M447.359,231.436c-6.069,0-10.995,4.926-10.995,10.995c0,6.08,4.926,10.995,10.995,10.995s10.995-4.915,10.995-10.995
	C458.355,236.362,453.429,231.436,447.359,231.436z"/>
<path d="M424.962,231.029c6.069,0,10.995-4.926,10.995-10.995s-4.926-10.995-10.995-10.995c-6.08,0-10.995,4.926-10.995,10.995
	S418.882,231.029,424.962,231.029z"/>
<path d="M424.962,275.835c6.069,0,10.995-4.926,10.995-10.995s-4.926-10.995-10.995-10.995c-6.08,0-10.995,4.926-10.995,10.995
	S418.882,275.835,424.962,275.835z"/>
<path d="M402.554,253.427c6.069,0,10.995-4.915,10.995-10.995c0-6.069-4.926-10.995-10.995-10.995s-10.995,4.926-10.995,10.995
	C391.559,248.512,396.485,253.427,402.554,253.427z"/>
<path d="M109.446,231.436c-6.069,0-10.995,4.926-10.995,10.995c0,6.08,4.926,10.995,10.995,10.995
	c6.069,0,10.995-4.915,10.995-10.995C120.441,236.362,115.515,231.436,109.446,231.436z"/>
<path d="M87.038,231.029c6.08,0,10.995-4.926,10.995-10.995s-4.915-10.995-10.995-10.995c-6.069,0-10.995,4.926-10.995,10.995
	S80.968,231.029,87.038,231.029z"/>
<path d="M87.038,275.835c6.08,0,10.995-4.926,10.995-10.995s-4.915-10.995-10.995-10.995c-6.069,0-10.995,4.926-10.995,10.995
	S80.968,275.835,87.038,275.835z"/>
<path d="M64.64,253.427c6.069,0,10.995-4.915,10.995-10.995c0-6.069-4.926-10.995-10.995-10.995
	c-6.069,0-10.995,4.926-10.995,10.995C53.645,248.512,58.571,253.427,64.64,253.427z"/>
<path d="M300.778,225.532h3.299c6.072,0,10.995-4.923,10.995-10.995s-4.924-10.995-10.995-10.995h-3.299
	c-6.072,0-10.995,4.923-10.995,10.995S294.705,225.532,300.778,225.532z"/>
<path d="M340.519,203.542h-6.894c-6.072,0-10.995,4.923-10.995,10.995s4.924,10.995,10.995,10.995h6.894
	c3.214,0,5.829,2.609,5.829,5.816v84.575c0,3.213-2.615,5.827-5.829,5.827H171.48c-3.213,0-5.827-2.614-5.827-5.827v-84.575
	c0-3.207,2.615-5.816,5.827-5.816h98.511c6.072,0,10.995-4.923,10.995-10.995s-4.924-10.995-10.995-10.995H171.48
	c-15.338,0-27.818,12.474-27.818,27.807v84.575c0,15.338,12.479,27.818,27.818,27.818h169.038c15.339,0,27.819-12.479,27.819-27.818
	v-84.575C368.337,216.016,355.858,203.542,340.519,203.542z"/>
<path d="M87.038,288.391c-16.77,0-30.413,13.648-30.413,30.424c0,16.775,13.643,30.424,30.413,30.424
	c16.775,0,30.424-13.648,30.424-30.424C117.461,302.039,103.813,288.391,87.038,288.391z M87.038,327.248
	c-4.644,0-8.422-3.783-8.422-8.433c0-4.65,3.779-8.433,8.422-8.433c4.65,0,8.433,3.783,8.433,8.433
	C95.471,323.465,91.689,327.248,87.038,327.248z"/>
<path d="M424.962,288.391c-16.775,0-30.424,13.648-30.424,30.424c0,16.775,13.648,30.424,30.424,30.424
	c16.77,0,30.413-13.648,30.413-30.424C455.375,302.039,441.732,288.391,424.962,288.391z M424.962,327.248
	c-4.65,0-8.433-3.783-8.433-8.433c0-4.65,3.782-8.433,8.433-8.433c4.644,0,8.422,3.783,8.422,8.433
	C433.385,323.465,429.607,327.248,424.962,327.248z"/>
<path d="M456.059,161.894c-1.824-8.702-6.12-16.699-12.551-23.13c-8.731-8.746-20.352-13.561-32.719-13.561h-28.994
	c-15.514,0-28.137,12.621-28.137,28.137v7.147H158.341v-7.147c0-15.514-12.621-28.137-28.137-28.137H101.21
	c-22.351,0-41.049,15.934-45.341,37.043c-7.778,2.309-14.764,6.828-20.057,13.164C12.718,203.087,0,238.221,0,274.339
	c0,35.252,12.188,69.738,34.328,97.116c7.903,9.751,19.736,15.343,32.468,15.343h377.265c12.488,0,24.197-5.441,32.127-14.935
	C499.282,344.184,512,309.053,512,272.944c0-35.264-12.189-69.751-34.324-97.109C472.09,168.928,464.522,164.121,456.059,161.894z
	 M375.648,153.338c0-3.389,2.758-6.146,6.146-6.146h28.994c6.486,0,12.58,2.524,17.162,7.115c1.841,1.841,3.349,3.924,4.496,6.178
	h-56.799V153.338z M101.21,147.191h28.994c3.389,0,6.146,2.758,6.146,6.146v7.147H79.565
	C83.583,152.602,91.776,147.191,101.21,147.191z M459.306,357.771c-3.735,4.472-9.292,7.037-15.245,7.037H66.796
	c-6.069,0-11.677-2.623-15.377-7.189c-18.978-23.468-29.429-53.044-29.429-83.279c0-30.979,10.905-61.11,30.705-84.84
	c3.728-4.465,9.284-7.026,15.244-7.026h79.407h217.308h80.552c6.075,0,11.68,2.621,15.377,7.191
	c18.978,23.457,29.429,53.033,29.429,83.278C490.01,303.914,479.104,334.041,459.306,357.771z"/>
</svg>